<?xml version="1.0" standalone="no"?>
<!DOCTYPE svg PUBLIC "-//W3C//DTD SVG 20010904//EN"
 "http://www.w3.org/TR/2001/REC-SVG-20010904/DTD/svg10.dtd">
<svg version="1.0" xmlns="http://www.w3.org/2000/svg"
 width="322.000000pt" height="145.000000pt" viewBox="0 0 322.000000 145.000000"
 preserveAspectRatio="xMidYMid meet">

<g transform="translate(0.000000,145.000000) scale(0.100000,-0.100000)"
fill="#000000" stroke="none">
<path d="M851 1411 c-8 -14 -7 -22 4 -31 8 -7 15 -21 15 -30 0 -14 -22 -26
-92 -49 -51 -17 -120 -47 -153 -66 -149 -87 -241 -109 -340 -80 -31 9 -59 14
-62 11 -11 -10 9 -26 42 -32 37 -7 45 -18 20 -28 -20 -7 -19 -35 1 -58 16 -17
12 -29 -60 -199 -43 -99 -75 -183 -72 -186 6 -7 24 30 86 177 29 69 56 128 59
132 3 4 5 -62 3 -147 -2 -103 0 -155 7 -155 7 0 11 56 13 156 l3 156 69 -148
c71 -152 85 -178 93 -170 3 2 -32 86 -78 185 -77 170 -81 182 -65 199 20 23
21 51 1 58 -31 12 -13 21 46 23 64 2 126 19 199 56 66 34 168 65 209 65 59 0
65 -9 57 -81 -3 -35 -11 -68 -16 -73 -14 -14 -12 -138 3 -158 10 -12 11 -38 5
-100 -4 -45 -10 -141 -14 -213 -3 -71 -11 -139 -16 -150 -21 -40 -51 -65 -81
-65 -28 0 -29 -1 -22 -32 4 -18 8 -46 9 -63 1 -28 -1 -30 -44 -35 l-45 -5 -3
-82 -3 -82 38 -4 c26 -2 19 -4 -24 -5 -56 -2 -62 -4 -65 -25 -3 -21 -8 -22
-133 -27 -93 -4 -130 -8 -130 -17 0 -10 204 -13 920 -15 l920 -2 3 47 c4 64
30 64 77 -1 l34 -48 78 1 c76 1 78 2 96 33 17 30 23 32 72 32 49 0 55 -2 72
-32 l19 -33 301 -2 c191 -2 304 1 308 7 4 6 -27 10 -85 10 l-91 0 3 33 c3 31
4 32 62 37 73 7 96 30 96 99 0 38 -5 52 -26 72 -22 21 -37 24 -110 28 l-84 3
0 -136 0 -136 -111 0 -110 0 3 33 c3 31 4 32 59 37 88 8 120 53 98 134 -14 50
-49 66 -144 66 l-75 0 0 -135 c0 -126 -1 -135 -19 -135 -15 0 -31 30 -77 135
-56 133 -58 135 -89 135 -31 0 -33 -2 -90 -135 -40 -92 -63 -135 -74 -135 -9
0 -29 18 -44 40 l-29 40 26 31 c34 40 34 88 2 126 -23 26 -30 28 -115 31 l-91
4 0 -136 0 -136 -46 0 c-45 0 -45 0 -30 22 23 32 20 66 -9 92 -22 21 -23 25
-10 36 25 21 19 76 -11 99 -22 17 -41 21 -105 21 l-79 0 0 -135 0 -135 -35 0
-35 0 0 135 0 135 -30 0 -29 0 -3 -132 c-3 -129 -4 -133 -25 -136 -18 -3 -23
2 -23 17 0 19 -6 21 -60 21 l-60 0 0 115 0 115 -35 0 -35 0 0 -124 0 -125
-227 -3 c-126 -2 -232 0 -237 4 -6 5 24 8 66 8 85 0 138 8 138 21 0 5 -11 9
-25 9 -25 0 -25 0 -25 95 l0 95 -51 0 -52 0 7 63 6 63 -33 12 c-67 24 -69 31
-86 273 -11 172 -12 227 -3 253 16 44 15 127 -2 151 -7 11 -15 48 -18 82 l-4
63 34 6 c46 9 120 -9 217 -52 112 -50 161 -65 228 -66 56 -2 72 -10 42 -22
-20 -7 -19 -53 2 -64 14 -8 7 -31 -61 -191 -43 -100 -76 -185 -73 -188 7 -7
15 10 82 167 32 74 60 138 64 142 3 4 5 -62 3 -147 -2 -101 1 -155 7 -155 7 0
12 58 13 156 l3 156 71 -153 c39 -84 76 -155 82 -157 11 -3 -8 41 -118 286
-31 67 -32 74 -16 90 21 24 20 37 -4 60 -19 18 -19 18 25 30 49 13 64 39 18
28 -156 -34 -193 -29 -353 53 -111 56 -224 101 -255 101 -20 0 -19 39 1 62 14
14 14 20 4 33 -17 21 -47 19 -59 -4z m-513 -334 c4 -20 -25 -34 -40 -19 -15
15 -1 44 19 40 10 -2 19 -11 21 -21z m1130 0 c4 -20 -25 -34 -40 -19 -15 15
-1 44 19 40 10 -2 19 -11 21 -21z m482 -842 c21 -26 4 -45 -40 -45 -35 0 -40
3 -40 23 0 13 3 27 7 30 12 13 60 7 73 -8z m291 5 c21 -12 25 -50 7 -68 -7 -7
-29 -12 -50 -12 -37 0 -38 1 -38 38 0 21 3 42 7 45 10 10 52 8 74 -3z m611
-12 c12 -19 10 -52 -4 -66 -7 -7 -29 -12 -50 -12 l-38 0 0 43 c0 24 3 47 8 51
10 11 74 -1 84 -16z m266 6 c44 -31 17 -84 -44 -84 -33 0 -34 1 -34 43 0 24 3
47 7 50 11 12 48 7 71 -9z m-568 -96 c0 -5 -16 -8 -35 -8 -19 0 -35 2 -35 5 0
2 8 20 17 40 l17 36 18 -33 c9 -18 17 -36 18 -40z m-605 -8 c20 -7 26 -16 23
-33 -3 -19 -9 -22 -48 -22 -35 0 -45 4 -48 18 -9 44 18 58 73 37z"/>
<path d="M52 623 c-54 -47 -41 -139 24 -163 35 -14 554 -13 554 0 0 6 -95 10
-264 10 -251 0 -265 1 -290 21 -35 28 -36 80 -1 114 l24 25 266 0 c170 0 265
4 265 10 0 6 -98 10 -273 10 l-273 0 -32 -27z"/>
<path d="M1194 616 c-44 -44 -45 -83 -5 -128 l29 -33 281 -3 c191 -2 281 0
281 8 0 7 -87 10 -264 10 -251 0 -265 1 -290 21 -20 16 -26 29 -26 59 0 30 6
43 26 59 25 20 39 21 290 21 169 0 264 4 264 10 0 6 -99 10 -276 10 l-276 0
-34 -34z"/>
</g>
</svg>
